<svg width="2305" height="1338" viewBox="0 0 2305 1338" fill="none" xmlns="http://www.w3.org/2000/svg">
<g filter="url(#filter0_d_910_8201)">
<path d="M1297.71 328.653L1338.34 328.019C1346.21 327.897 1351.07 334.451 1349.82 340.765C1345.97 360.233 1340.29 383.171 1333.01 399.161C1325.95 414.647 1313.51 432.096 1300.04 448.328C1296.74 452.307 1293.15 452.532 1290.22 451.318C1287.03 449.998 1283.93 446.568 1284.01 440.721L1285.41 340.976C1285.51 334.217 1290.96 328.758 1297.71 328.653Z" stroke="url(#paint0_linear_910_8201)" stroke-width="33" shape-rendering="crispEdges"/>
</g>
<g filter="url(#filter1_d_910_8201)">
<path d="M1006.83 329.196L965.896 328.558C958.073 328.436 953.228 334.914 954.414 341.181C958.115 360.738 963.659 383.839 970.928 399.89C978.047 415.609 990.807 433.299 1004.59 449.676C1007.9 453.605 1011.47 453.812 1014.38 452.593C1017.55 451.266 1020.62 447.839 1020.54 442.02L1019.14 341.519C1019.04 334.76 1013.59 329.301 1006.83 329.196Z" stroke="url(#paint1_linear_910_8201)" stroke-width="33" stroke-miterlimit="2.06397" shape-rendering="crispEdges"/>
</g>
<g filter="url(#filter2_d_910_8201)">
<path fill-rule="evenodd" clip-rule="evenodd" d="M1036.02 247C1017.8 247 1003.02 261.775 1003.02 280V473.5V477C1003.02 479.726 1003.35 482.375 1003.98 484.908C1013.03 538.916 1084.93 581 1152.02 581C1219.12 581 1291.02 538.916 1300.07 484.908C1300.69 482.375 1301.02 479.726 1301.02 477V473.5V280C1301.02 261.775 1286.25 247 1268.02 247H1036.02Z" fill="url(#paint2_linear_910_8201)"/>
</g>
<g filter="url(#filter3_d_910_8201)">
<path fill-rule="evenodd" clip-rule="evenodd" d="M1237.02 630V629.864C1215.15 628.124 1197.94 609.822 1197.94 587.5V572.392C1197.94 569.519 1198.22 566.713 1198.77 564H1152.02H1105.28C1105.82 566.713 1106.11 569.519 1106.11 572.392V587.5C1106.11 609.822 1088.9 628.124 1067.02 629.864V630H1035.02C1017.35 630 1003.02 644.327 1003.02 662C1003.02 662.635 1003.04 663.266 1003.08 663.893C1003.04 664.257 1003.02 664.626 1003.02 665V683C1003.02 689.075 1007.95 694 1014.02 694H1035.02H1276.02H1297.02C1303.1 694 1308.02 689.075 1308.02 683V665C1308.02 664.626 1308 664.257 1307.97 663.893C1308 663.266 1308.02 662.635 1308.02 662C1308.02 644.327 1293.7 630 1276.02 630H1237.02Z" fill="url(#paint3_linear_910_8201)" fill-opacity="0.72" shape-rendering="crispEdges"/>
</g>
<path d="M1143.93 356.745C1146.37 349.454 1156.68 349.454 1159.11 356.745L1166.87 380.01C1167.96 383.276 1171.02 385.478 1174.46 385.478H1199.12C1206.92 385.478 1210.11 395.503 1203.74 400.009L1184.16 413.864C1181.28 415.9 1180.08 419.581 1181.19 422.926L1188.76 445.6C1191.2 452.934 1182.86 459.128 1176.55 454.663L1156.14 440.226C1153.38 438.267 1149.67 438.267 1146.9 440.226L1126.5 454.663C1120.19 459.128 1111.84 452.934 1114.29 445.6L1121.85 422.926C1122.97 419.581 1121.76 415.9 1118.89 413.864L1099.3 400.009C1092.94 395.503 1096.12 385.478 1103.92 385.478H1128.58C1132.03 385.478 1135.08 383.276 1136.17 380.01L1143.93 356.745Z" fill="url(#paint4_linear_910_8201)"/>
<path d="M960 715C960 703.402 969.402 694 981 694H1322C1333.6 694 1343 703.402 1343 715V791C1343 802.598 1333.6 812 1322 812H981C969.402 812 960 802.598 960 791V715Z" fill="url(#paint5_linear_910_8201)"/>
<path d="M960 715C960 703.402 969.402 694 981 694H1322C1333.6 694 1343 703.402 1343 715V791C1343 802.598 1333.6 812 1322 812H981C969.402 812 960 802.598 960 791V715Z" fill="url(#paint6_linear_910_8201)"/>
<path d="M960 715C960 703.402 969.402 694 981 694H1322C1333.6 694 1343 703.402 1343 715V791C1343 802.598 1333.6 812 1322 812H981C969.402 812 960 802.598 960 791V715Z" fill="url(#paint7_linear_910_8201)"/>
<path d="M1063 733C1063 721.402 1072.4 712 1084 712H1227C1238.6 712 1248 721.402 1248 733V774C1248 785.598 1238.6 795 1227 795H1084C1072.4 795 1063 785.598 1063 774V733Z" fill="url(#paint8_linear_910_8201)"/>
<path d="M1019.53 828.55V841.89H999.06V956.66H1019.53V970H960.42V906.29H920.86V956.66H937.65V970H861.75V956.66H882.22V841.89H861.75V828.55H932.36V841.89H920.86V892.95H960.42V841.89H948.92V828.55H1019.53ZM1021.91 866.73H1069.98L1096.43 933.66L1120.35 878.46H1101.95V866.73H1149.79V878.46H1133.69L1087.69 986.1C1086.31 989.473 1084.77 992.463 1083.09 995.07C1081.55 997.83 1079.71 1000.13 1077.57 1001.97C1075.57 1003.96 1073.12 1005.42 1070.21 1006.34C1067.45 1007.41 1064.07 1007.95 1060.09 1007.95C1055.79 1007.95 1052.34 1007.18 1049.74 1005.65C1047.28 1004.27 1045.37 1002.51 1043.99 1000.36C1042.61 998.367 1041.69 996.22 1041.23 993.92C1040.92 991.773 1040.77 989.857 1040.77 988.17V981.27H1052.96V988.4C1052.96 990.24 1053.42 992.003 1054.34 993.69C1055.41 995.377 1057.33 996.22 1060.09 996.22C1064.23 996.22 1067.37 994.763 1069.52 991.85C1071.82 988.937 1073.81 985.487 1075.5 981.5L1078.03 975.52L1033.41 878.46H1021.91V866.73ZM1153.29 870.87H1166.86L1201.59 864.2V878.69C1206.04 874.55 1210.95 871.33 1216.31 869.03C1221.68 866.577 1227.35 865.35 1233.33 865.35C1239.62 865.35 1245.22 866.347 1250.12 868.34C1255.03 870.18 1259.09 873.247 1262.31 877.54C1265.69 881.68 1268.22 887.2 1269.9 894.1C1271.59 900.847 1272.43 909.05 1272.43 918.71C1272.43 928.523 1271.51 936.88 1269.67 943.78C1267.83 950.527 1264.77 956.047 1260.47 960.34C1256.18 964.48 1250.58 967.47 1243.68 969.31C1236.94 971.15 1228.66 972.07 1218.84 972.07C1216.08 972.07 1213.4 971.917 1210.79 971.61C1208.19 971.303 1205.66 970.997 1203.2 970.69V1007.95H1153.29V996.22H1166.86V882.37H1153.29V870.87ZM1230.57 877.77C1225.51 877.77 1220.61 879.38 1215.85 882.6C1211.1 885.82 1206.88 889.807 1203.2 894.56V959.65C1205.81 960.417 1208.49 960.953 1211.25 961.26C1214.01 961.567 1216.54 961.72 1218.84 961.72C1222.52 961.72 1225.44 961.49 1227.58 961.03C1228.81 960.877 1229.81 960.647 1230.57 960.34C1231.34 956.813 1232.03 952.903 1232.64 948.61C1233.1 944.93 1233.56 940.56 1234.02 935.5C1234.48 930.287 1234.71 924.69 1234.71 918.71C1234.71 911.35 1234.48 905.14 1234.02 900.08C1233.56 894.867 1233.1 890.573 1232.64 887.2C1232.03 883.213 1231.34 880.07 1230.57 877.77ZM1344.45 828.55H1358.02L1394.36 821.88V958.5H1397.35C1398.73 958.5 1400.11 958.423 1401.49 958.27L1406.55 957.81V968.85C1403.79 969.31 1401.11 969.693 1398.5 970C1396.36 970.307 1394.06 970.537 1391.6 970.69C1389.15 970.843 1387.16 970.92 1385.62 970.92C1378.11 970.92 1372.44 969.54 1368.6 966.78C1364.77 964.02 1362.01 961.03 1360.32 957.81C1355.88 962.257 1350.82 965.707 1345.14 968.16C1339.62 970.613 1333.8 971.84 1327.66 971.84C1321.38 971.84 1315.78 970.92 1310.87 969.08C1305.97 967.087 1301.83 964.02 1298.45 959.88C1295.23 955.587 1292.78 950.067 1291.09 943.32C1289.41 936.42 1288.56 928.14 1288.56 918.48C1288.56 908.667 1289.48 900.387 1291.32 893.64C1293.16 886.74 1296.23 881.22 1300.52 877.08C1304.82 872.787 1310.34 869.72 1317.08 867.88C1323.83 866.04 1332.19 865.12 1342.15 865.12C1344.91 865.12 1347.6 865.273 1350.2 865.58L1358.02 866.5V840.05H1344.45V828.55ZM1330.42 959.42C1335.48 959.42 1340.39 957.81 1345.14 954.59C1350.05 951.37 1354.34 947.307 1358.02 942.4V877.77C1355.42 877.003 1352.66 876.467 1349.74 876.16C1346.98 875.7 1344.45 875.47 1342.15 875.47C1340.16 875.47 1338.47 875.547 1337.09 875.7C1335.71 875.853 1334.49 876.007 1333.41 876.16C1332.19 876.467 1331.19 876.697 1330.42 876.85C1329.66 880.53 1328.97 884.517 1328.35 888.81C1327.74 892.49 1327.2 896.86 1326.74 901.92C1326.44 906.98 1326.28 912.5 1326.28 918.48C1326.28 925.84 1326.44 932.127 1326.74 937.34C1327.2 942.4 1327.74 946.617 1328.35 949.99C1328.97 953.977 1329.66 957.12 1330.42 959.42Z" fill="black"/>
<path d="M105.324 1008.45H118.435L144.656 1052.59H145.764L171.986 1008.45H185.097L150.935 1064.04V1103H139.486V1064.04L105.324 1008.45ZM217.204 1104.48C210.803 1104.48 205.186 1102.95 200.354 1099.91C195.553 1096.86 191.798 1092.6 189.09 1087.12C186.412 1081.64 185.074 1075.24 185.074 1067.91C185.074 1060.53 186.412 1054.08 189.09 1048.57C191.798 1043.06 195.553 1038.78 200.354 1035.74C205.186 1032.69 210.803 1031.17 217.204 1031.17C223.606 1031.17 229.207 1032.69 234.008 1035.74C238.84 1038.78 242.595 1043.06 245.272 1048.57C247.981 1054.08 249.335 1060.53 249.335 1067.91C249.335 1075.24 247.981 1081.64 245.272 1087.12C242.595 1092.6 238.84 1096.86 234.008 1099.91C229.207 1102.95 223.606 1104.48 217.204 1104.48ZM217.204 1094.69C222.067 1094.69 226.068 1093.44 229.207 1090.95C232.346 1088.46 234.67 1085.18 236.178 1081.12C237.686 1077.06 238.44 1072.65 238.44 1067.91C238.44 1063.18 237.686 1058.76 236.178 1054.67C234.67 1050.57 232.346 1047.26 229.207 1044.74C226.068 1042.22 222.067 1040.95 217.204 1040.95C212.342 1040.95 208.341 1042.22 205.201 1044.74C202.062 1047.26 199.739 1050.57 198.23 1054.67C196.722 1058.76 195.968 1063.18 195.968 1067.91C195.968 1072.65 196.722 1077.06 198.23 1081.12C199.739 1085.18 202.062 1088.46 205.201 1090.95C208.341 1093.44 212.342 1094.69 217.204 1094.69ZM310.653 1074.01V1032.09H321.548V1103H310.653V1091H309.915C308.253 1094.6 305.667 1097.66 302.159 1100.18C298.65 1102.68 294.219 1103.92 288.863 1103.92C284.432 1103.92 280.492 1102.95 277.045 1101.01C273.598 1099.05 270.89 1096.09 268.92 1092.15C266.951 1088.18 265.966 1083.18 265.966 1077.15V1032.09H276.861V1076.41C276.861 1081.58 278.307 1085.7 281.2 1088.78C284.124 1091.86 287.848 1093.4 292.372 1093.4C295.08 1093.4 297.835 1092.71 300.635 1091.32C303.467 1089.94 305.837 1087.81 307.745 1084.95C309.684 1082.09 310.653 1078.44 310.653 1074.01ZM341.503 1103V1032.09H352.028V1042.8H352.767C354.06 1039.29 356.399 1036.45 359.784 1034.26C363.17 1032.08 366.986 1030.98 371.233 1030.98C372.033 1030.98 373.033 1031 374.234 1031.03C375.434 1031.06 376.342 1031.11 376.957 1031.17V1042.25C376.588 1042.15 375.742 1042.02 374.418 1041.83C373.126 1041.62 371.756 1041.51 370.31 1041.51C366.863 1041.51 363.785 1042.23 361.077 1043.68C358.399 1045.09 356.276 1047.06 354.706 1049.59C353.167 1052.08 352.398 1054.93 352.398 1058.13V1103H341.503ZM471.122 1074.01V1032.09H482.017V1103H471.122V1091H470.383C468.721 1094.6 466.136 1097.66 462.628 1100.18C459.119 1102.68 454.687 1103.92 449.332 1103.92C444.9 1103.92 440.961 1102.95 437.514 1101.01C434.067 1099.05 431.359 1096.09 429.389 1092.15C427.419 1088.18 426.434 1083.18 426.434 1077.15V1032.09H437.329V1076.41C437.329 1081.58 438.776 1085.7 441.669 1088.78C444.593 1091.86 448.317 1093.4 452.841 1093.4C455.549 1093.4 458.304 1092.71 461.104 1091.32C463.936 1089.94 466.305 1087.81 468.214 1084.95C470.153 1082.09 471.122 1078.44 471.122 1074.01ZM512.866 1008.45V1103H501.972V1008.45H512.866ZM563.659 1032.09V1041.32H526.912V1032.09H563.659ZM537.622 1015.1H548.517V1082.69C548.517 1085.77 548.963 1088.07 549.856 1089.61C550.779 1091.12 551.949 1092.14 553.365 1092.66C554.811 1093.15 556.334 1093.4 557.935 1093.4C559.135 1093.4 560.12 1093.34 560.889 1093.21C561.659 1093.06 562.274 1092.94 562.736 1092.84L564.952 1102.63C564.213 1102.91 563.182 1103.18 561.859 1103.46C560.535 1103.77 558.858 1103.92 556.827 1103.92C553.749 1103.92 550.733 1103.26 547.779 1101.94C544.855 1100.61 542.423 1098.6 540.485 1095.89C538.576 1093.18 537.622 1089.77 537.622 1085.64V1015.1ZM580.048 1103V1032.09H590.943V1103H580.048ZM585.588 1020.27C583.464 1020.27 581.633 1019.55 580.094 1018.1C578.586 1016.66 577.832 1014.92 577.832 1012.89C577.832 1010.86 578.586 1009.12 580.094 1007.67C581.633 1006.22 583.464 1005.5 585.588 1005.5C587.711 1005.5 589.527 1006.22 591.035 1007.67C592.574 1009.12 593.343 1010.86 593.343 1012.89C593.343 1014.92 592.574 1016.66 591.035 1018.1C589.527 1019.55 587.711 1020.27 585.588 1020.27ZM610.897 1103V1032.09H621.423V1043.17H622.346C623.824 1039.38 626.209 1036.45 629.502 1034.35C632.795 1032.23 636.75 1031.17 641.366 1031.17C646.044 1031.17 649.937 1032.23 653.046 1034.35C656.185 1036.45 658.632 1039.38 660.386 1043.17H661.125C662.94 1039.51 665.664 1036.6 669.296 1034.45C672.927 1032.26 677.282 1031.17 682.36 1031.17C688.7 1031.17 693.886 1033.15 697.918 1037.12C701.95 1041.06 703.966 1047.2 703.966 1055.54V1103H693.071V1055.54C693.071 1050.31 691.64 1046.57 688.777 1044.32C685.915 1042.08 682.545 1040.95 678.667 1040.95C673.681 1040.95 669.819 1042.46 667.08 1045.48C664.341 1048.46 662.971 1052.25 662.971 1056.84V1103H651.892V1054.43C651.892 1050.4 650.584 1047.16 647.968 1044.69C645.352 1042.2 641.982 1040.95 637.858 1040.95C635.026 1040.95 632.379 1041.71 629.917 1043.22C627.486 1044.72 625.516 1046.82 624.008 1049.5C622.531 1052.14 621.792 1055.2 621.792 1058.68V1103H610.897ZM744.752 1104.66C740.259 1104.66 736.181 1103.82 732.518 1102.12C728.856 1100.4 725.948 1097.92 723.793 1094.69C721.639 1091.43 720.562 1087.49 720.562 1082.87C720.562 1078.81 721.362 1075.52 722.962 1072.99C724.563 1070.44 726.702 1068.44 729.379 1066.99C732.057 1065.54 735.011 1064.47 738.243 1063.76C741.505 1063.02 744.783 1062.44 748.076 1062.01C752.385 1061.45 755.878 1061.04 758.555 1060.76C761.264 1060.45 763.233 1059.94 764.464 1059.24C765.726 1058.53 766.357 1057.3 766.357 1055.54V1055.17C766.357 1050.62 765.111 1047.08 762.618 1044.56C760.156 1042.03 756.416 1040.77 751.4 1040.77C746.199 1040.77 742.121 1041.91 739.166 1044.19C736.212 1046.46 734.134 1048.89 732.934 1051.48L722.593 1047.79C724.44 1043.48 726.902 1040.12 729.979 1037.72C733.088 1035.29 736.473 1033.6 740.136 1032.64C743.829 1031.66 747.46 1031.17 751.031 1031.17C753.308 1031.17 755.924 1031.44 758.879 1032C761.864 1032.52 764.741 1033.61 767.511 1035.28C770.312 1036.94 772.636 1039.45 774.482 1042.8C776.329 1046.16 777.252 1050.65 777.252 1056.28V1103H766.357V1093.4H765.803C765.065 1094.94 763.834 1096.58 762.11 1098.34C760.387 1100.09 758.094 1101.58 755.232 1102.82C752.369 1104.05 748.876 1104.66 744.752 1104.66ZM746.414 1094.88C750.723 1094.88 754.354 1094.03 757.309 1092.34C760.294 1090.64 762.541 1088.46 764.049 1085.78C765.588 1083.1 766.357 1080.29 766.357 1077.33V1067.36C765.896 1067.91 764.88 1068.42 763.31 1068.88C761.772 1069.32 759.987 1069.7 757.955 1070.04C755.955 1070.35 754 1070.62 752.092 1070.87C750.215 1071.08 748.692 1071.27 747.522 1071.42C744.691 1071.79 742.044 1072.39 739.582 1073.22C737.15 1074.02 735.181 1075.24 733.673 1076.87C732.195 1078.47 731.457 1080.66 731.457 1083.43C731.457 1087.21 732.857 1090.07 735.658 1092.01C738.489 1093.92 742.075 1094.88 746.414 1094.88ZM827.976 1032.09V1041.32H791.229V1032.09H827.976ZM801.939 1015.1H812.834V1082.69C812.834 1085.77 813.28 1088.07 814.172 1089.61C815.096 1091.12 816.265 1092.14 817.681 1092.66C819.127 1093.15 820.651 1093.4 822.251 1093.4C823.452 1093.4 824.436 1093.34 825.206 1093.21C825.975 1093.06 826.591 1092.94 827.052 1092.84L829.268 1102.63C828.53 1102.91 827.499 1103.18 826.175 1103.46C824.852 1103.77 823.175 1103.92 821.143 1103.92C818.066 1103.92 815.05 1103.26 812.095 1101.94C809.171 1100.61 806.74 1098.6 804.801 1095.89C802.893 1093.18 801.939 1089.77 801.939 1085.64V1015.1ZM873.333 1104.48C866.5 1104.48 860.606 1102.97 855.651 1099.95C850.727 1096.91 846.926 1092.66 844.249 1087.21C841.602 1081.73 840.279 1075.36 840.279 1068.1C840.279 1060.84 841.602 1054.43 844.249 1048.89C846.926 1043.32 850.65 1038.98 855.421 1035.88C860.222 1032.74 865.823 1031.17 872.225 1031.17C875.918 1031.17 879.565 1031.78 883.166 1033.01C886.767 1034.25 890.044 1036.25 892.999 1039.02C895.953 1041.75 898.308 1045.39 900.062 1049.91C901.816 1054.43 902.693 1060.01 902.693 1066.62V1071.24H848.034V1061.82H891.614C891.614 1057.82 890.814 1054.25 889.213 1051.11C887.644 1047.97 885.397 1045.49 882.473 1043.68C879.58 1041.86 876.164 1040.95 872.225 1040.95C867.885 1040.95 864.13 1042.03 860.96 1044.19C857.821 1046.31 855.405 1049.08 853.713 1052.5C852.02 1055.91 851.173 1059.57 851.173 1063.48V1069.76C851.173 1075.12 852.097 1079.66 853.943 1083.38C855.821 1087.07 858.421 1089.89 861.745 1091.83C865.069 1093.74 868.932 1094.69 873.333 1094.69C876.195 1094.69 878.78 1094.29 881.088 1093.49C883.427 1092.66 885.443 1091.43 887.136 1089.8C888.829 1088.13 890.137 1086.07 891.06 1083.61L901.585 1086.57C900.477 1090.14 898.615 1093.27 895.999 1095.98C893.383 1098.66 890.152 1100.75 886.305 1102.26C882.458 1103.74 878.134 1104.48 873.333 1104.48ZM955.829 1129.59V1032.09H966.355V1043.36H967.647C968.447 1042.12 969.555 1040.55 970.971 1038.65C972.418 1036.71 974.48 1034.98 977.157 1033.48C979.865 1031.94 983.528 1031.17 988.144 1031.17C994.115 1031.17 999.378 1032.66 1003.93 1035.65C1008.49 1038.63 1012.04 1042.86 1014.6 1048.34C1017.15 1053.82 1018.43 1060.28 1018.43 1067.73C1018.43 1075.24 1017.15 1081.75 1014.6 1087.26C1012.04 1092.74 1008.5 1096.98 1003.98 1100C999.455 1102.98 994.238 1104.48 988.329 1104.48C983.774 1104.48 980.127 1103.72 977.388 1102.22C974.649 1100.68 972.541 1098.94 971.063 1097C969.586 1095.03 968.447 1093.4 967.647 1092.11H966.724V1129.59H955.829ZM966.539 1067.55C966.539 1072.9 967.324 1077.62 968.894 1081.72C970.463 1085.78 972.756 1088.97 975.772 1091.27C978.788 1093.55 982.481 1094.69 986.852 1094.69C991.407 1094.69 995.208 1093.49 998.254 1091.09C1001.33 1088.66 1003.64 1085.4 1005.18 1081.3C1006.75 1077.18 1007.53 1072.59 1007.53 1067.55C1007.53 1062.56 1006.76 1058.07 1005.23 1054.07C1003.72 1050.03 1001.42 1046.85 998.347 1044.51C995.3 1042.14 991.468 1040.95 986.852 1040.95C982.42 1040.95 978.696 1042.08 975.68 1044.32C972.664 1046.54 970.386 1049.65 968.847 1053.65C967.309 1057.62 966.539 1062.25 966.539 1067.55ZM1035.05 1103V1032.09H1045.57V1042.8H1046.31C1047.6 1039.29 1049.94 1036.45 1053.33 1034.26C1056.71 1032.08 1060.53 1030.98 1064.78 1030.98C1065.58 1030.98 1066.58 1031 1067.78 1031.03C1068.98 1031.06 1069.89 1031.11 1070.5 1031.17V1042.25C1070.13 1042.15 1069.29 1042.02 1067.96 1041.83C1066.67 1041.62 1065.3 1041.51 1063.85 1041.51C1060.41 1041.51 1057.33 1042.23 1054.62 1043.68C1051.94 1045.09 1049.82 1047.06 1048.25 1049.59C1046.71 1052.08 1045.94 1054.93 1045.94 1058.13V1103H1035.05ZM1110.07 1104.48C1103.66 1104.48 1098.05 1102.95 1093.22 1099.91C1088.41 1096.86 1084.66 1092.6 1081.95 1087.12C1079.27 1081.64 1077.93 1075.24 1077.93 1067.91C1077.93 1060.53 1079.27 1054.08 1081.95 1048.57C1084.66 1043.06 1088.41 1038.78 1093.22 1035.74C1098.05 1032.69 1103.66 1031.17 1110.07 1031.17C1116.47 1031.17 1122.07 1032.69 1126.87 1035.74C1131.7 1038.78 1135.46 1043.06 1138.13 1048.57C1140.84 1054.08 1142.2 1060.53 1142.2 1067.91C1142.2 1075.24 1140.84 1081.64 1138.13 1087.12C1135.46 1092.6 1131.7 1096.86 1126.87 1099.91C1122.07 1102.95 1116.47 1104.48 1110.07 1104.48ZM1110.07 1094.69C1114.93 1094.69 1118.93 1093.44 1122.07 1090.95C1125.21 1088.46 1127.53 1085.18 1129.04 1081.12C1130.55 1077.06 1131.3 1072.65 1131.3 1067.91C1131.3 1063.18 1130.55 1058.76 1129.04 1054.67C1127.53 1050.57 1125.21 1047.26 1122.07 1044.74C1118.93 1042.22 1114.93 1040.95 1110.07 1040.95C1105.2 1040.95 1101.2 1042.22 1098.06 1044.74C1094.92 1047.26 1092.6 1050.57 1091.09 1054.67C1089.58 1058.76 1088.83 1063.18 1088.83 1067.91C1088.83 1072.65 1089.58 1077.06 1091.09 1081.12C1092.6 1085.18 1094.92 1088.46 1098.06 1090.95C1101.2 1093.44 1105.2 1094.69 1110.07 1094.69ZM1185.6 1104.48C1179.69 1104.48 1174.48 1102.98 1169.95 1100C1165.43 1096.98 1161.89 1092.74 1159.33 1087.26C1156.78 1081.75 1155.5 1075.24 1155.5 1067.73C1155.5 1060.28 1156.78 1053.82 1159.33 1048.34C1161.89 1042.86 1165.44 1038.63 1170 1035.65C1174.55 1032.66 1179.82 1031.17 1185.79 1031.17C1190.4 1031.17 1194.05 1031.94 1196.73 1033.48C1199.44 1034.98 1201.5 1036.71 1202.91 1038.65C1204.36 1040.55 1205.48 1042.12 1206.28 1043.36H1207.21V1008.45H1218.1V1103H1207.58V1092.11H1206.28C1205.48 1093.4 1204.35 1095.03 1202.87 1097C1201.39 1098.94 1199.28 1100.68 1196.54 1102.22C1193.8 1103.72 1190.16 1104.48 1185.6 1104.48ZM1187.08 1094.69C1191.45 1094.69 1195.14 1093.55 1198.16 1091.27C1201.18 1088.97 1203.47 1085.78 1205.04 1081.72C1206.61 1077.62 1207.39 1072.9 1207.39 1067.55C1207.39 1062.25 1206.62 1057.62 1205.08 1053.65C1203.55 1049.65 1201.27 1046.54 1198.25 1044.32C1195.24 1042.08 1191.51 1040.95 1187.08 1040.95C1182.46 1040.95 1178.62 1042.14 1175.54 1044.51C1172.49 1046.85 1170.2 1050.03 1168.66 1054.07C1167.15 1058.07 1166.4 1062.56 1166.4 1067.55C1166.4 1072.59 1167.17 1077.18 1168.71 1081.3C1170.28 1085.4 1172.58 1088.66 1175.63 1091.09C1178.71 1093.49 1182.52 1094.69 1187.08 1094.69ZM1284.26 1074.01V1032.09H1295.15V1103H1284.26V1091H1283.52C1281.86 1094.6 1279.27 1097.66 1275.76 1100.18C1272.25 1102.68 1267.82 1103.92 1262.47 1103.92C1258.04 1103.92 1254.1 1102.95 1250.65 1101.01C1247.2 1099.05 1244.49 1096.09 1242.52 1092.15C1240.55 1088.18 1239.57 1083.18 1239.57 1077.15V1032.09H1250.46V1076.41C1250.46 1081.58 1251.91 1085.7 1254.8 1088.78C1257.73 1091.86 1261.45 1093.4 1265.98 1093.4C1268.68 1093.4 1271.44 1092.71 1274.24 1091.32C1277.07 1089.94 1279.44 1087.81 1281.35 1084.95C1283.29 1082.09 1284.26 1078.44 1284.26 1074.01ZM1343.91 1104.48C1337.27 1104.48 1331.54 1102.91 1326.74 1099.77C1321.94 1096.63 1318.25 1092.31 1315.66 1086.8C1313.08 1081.29 1311.78 1074.99 1311.78 1067.91C1311.78 1060.71 1313.11 1054.36 1315.75 1048.85C1318.43 1043.31 1322.15 1038.98 1326.92 1035.88C1331.73 1032.74 1337.33 1031.17 1343.73 1031.17C1348.71 1031.17 1353.21 1032.09 1357.21 1033.94C1361.21 1035.78 1364.49 1038.37 1367.04 1041.69C1369.6 1045.02 1371.18 1048.89 1371.8 1053.33H1360.9C1360.07 1050.1 1358.22 1047.23 1355.36 1044.74C1352.53 1042.22 1348.71 1040.95 1343.91 1040.95C1339.67 1040.95 1335.94 1042.06 1332.74 1044.28C1329.57 1046.46 1327.09 1049.56 1325.31 1053.56C1323.55 1057.53 1322.68 1062.19 1322.68 1067.55C1322.68 1073.02 1323.54 1077.79 1325.26 1081.86C1327.02 1085.92 1329.48 1089.07 1332.65 1091.32C1335.85 1093.57 1339.6 1094.69 1343.91 1094.69C1346.74 1094.69 1349.31 1094.2 1351.62 1093.21C1353.93 1092.23 1355.89 1090.81 1357.49 1088.97C1359.09 1087.12 1360.22 1084.9 1360.9 1082.32H1371.8C1371.18 1086.5 1369.66 1090.27 1367.23 1093.63C1364.83 1096.95 1361.64 1099.6 1357.67 1101.57C1353.73 1103.51 1349.15 1104.48 1343.91 1104.48ZM1418.56 1032.09V1041.32H1381.81V1032.09H1418.56ZM1392.52 1015.1H1403.42V1082.69C1403.42 1085.77 1403.87 1088.07 1404.76 1089.61C1405.68 1091.12 1406.85 1092.14 1408.27 1092.66C1409.71 1093.15 1411.24 1093.4 1412.84 1093.4C1414.04 1093.4 1415.02 1093.34 1415.79 1093.21C1416.56 1093.06 1417.18 1092.94 1417.64 1092.84L1419.85 1102.63C1419.12 1102.91 1418.08 1103.18 1416.76 1103.46C1415.44 1103.77 1413.76 1103.92 1411.73 1103.92C1408.65 1103.92 1405.64 1103.26 1402.68 1101.94C1399.76 1100.61 1397.33 1098.6 1395.39 1095.89C1393.48 1093.18 1392.52 1089.77 1392.52 1085.64V1015.1ZM1434.95 1103V1032.09H1445.84V1103H1434.95ZM1440.49 1020.27C1438.37 1020.27 1436.54 1019.55 1435 1018.1C1433.49 1016.66 1432.73 1014.92 1432.73 1012.89C1432.73 1010.86 1433.49 1009.12 1435 1007.67C1436.54 1006.22 1438.37 1005.5 1440.49 1005.5C1442.61 1005.5 1444.43 1006.22 1445.94 1007.67C1447.48 1009.12 1448.25 1010.86 1448.25 1012.89C1448.25 1014.92 1447.48 1016.66 1445.94 1018.1C1444.43 1019.55 1442.61 1020.27 1440.49 1020.27ZM1523.78 1032.09L1497.56 1103H1486.48L1460.26 1032.09H1472.08L1491.65 1088.6H1492.39L1511.96 1032.09H1523.78ZM1538.16 1103V1032.09H1549.06V1103H1538.16ZM1543.7 1020.27C1541.58 1020.27 1539.75 1019.55 1538.21 1018.1C1536.7 1016.66 1535.95 1014.92 1535.95 1012.89C1535.95 1010.86 1536.7 1009.12 1538.21 1007.67C1539.75 1006.22 1541.58 1005.5 1543.7 1005.5C1545.83 1005.5 1547.64 1006.22 1549.15 1007.67C1550.69 1009.12 1551.46 1010.86 1551.46 1012.89C1551.46 1014.92 1550.69 1016.66 1549.15 1018.1C1547.64 1019.55 1545.83 1020.27 1543.7 1020.27ZM1599.85 1032.09V1041.32H1563.1V1032.09H1599.85ZM1573.81 1015.1H1584.71V1082.69C1584.71 1085.77 1585.15 1088.07 1586.05 1089.61C1586.97 1091.12 1588.14 1092.14 1589.56 1092.66C1591 1093.15 1592.53 1093.4 1594.13 1093.4C1595.33 1093.4 1596.31 1093.34 1597.08 1093.21C1597.85 1093.06 1598.47 1092.94 1598.93 1092.84L1601.14 1102.63C1600.4 1102.91 1599.37 1103.18 1598.05 1103.46C1596.73 1103.77 1595.05 1103.92 1593.02 1103.92C1589.94 1103.92 1586.92 1103.26 1583.97 1101.94C1581.05 1100.61 1578.61 1098.6 1576.68 1095.89C1574.77 1093.18 1573.81 1089.77 1573.81 1085.64V1015.1ZM1623.26 1129.59C1621.41 1129.59 1619.76 1129.44 1618.32 1129.13C1616.87 1128.85 1615.87 1128.58 1615.32 1128.3L1618.09 1118.7C1620.73 1119.37 1623.07 1119.62 1625.1 1119.43C1627.13 1119.25 1628.93 1118.34 1630.5 1116.71C1632.1 1115.11 1633.57 1112.51 1634.89 1108.91L1636.92 1103.37L1610.7 1032.09H1622.52L1642.09 1088.6H1642.83L1662.4 1032.09H1674.22L1644.12 1113.34C1642.77 1117 1641.09 1120.03 1639.09 1122.44C1637.09 1124.87 1634.77 1126.67 1632.12 1127.84C1629.5 1129.01 1626.55 1129.59 1623.26 1129.59ZM1725.16 1129.59V1032.09H1735.69V1043.36H1736.98C1737.78 1042.12 1738.89 1040.55 1740.31 1038.65C1741.75 1036.71 1743.82 1034.98 1746.49 1033.48C1749.2 1031.94 1752.86 1031.17 1757.48 1031.17C1763.45 1031.17 1768.71 1032.66 1773.27 1035.65C1777.82 1038.63 1781.38 1042.86 1783.93 1048.34C1786.49 1053.82 1787.76 1060.28 1787.76 1067.73C1787.76 1075.24 1786.49 1081.75 1783.93 1087.26C1781.38 1092.74 1777.84 1096.98 1773.31 1100C1768.79 1102.98 1763.57 1104.48 1757.66 1104.48C1753.11 1104.48 1749.46 1103.72 1746.72 1102.22C1743.98 1100.68 1741.88 1098.94 1740.4 1097C1738.92 1095.03 1737.78 1093.4 1736.98 1092.11H1736.06V1129.59H1725.16ZM1735.88 1067.55C1735.88 1072.9 1736.66 1077.62 1738.23 1081.72C1739.8 1085.78 1742.09 1088.97 1745.11 1091.27C1748.12 1093.55 1751.82 1094.69 1756.19 1094.69C1760.74 1094.69 1764.54 1093.49 1767.59 1091.09C1770.67 1088.66 1772.98 1085.4 1774.52 1081.3C1776.08 1077.18 1776.87 1072.59 1776.87 1067.55C1776.87 1062.56 1776.1 1058.07 1774.56 1054.07C1773.05 1050.03 1770.76 1046.85 1767.68 1044.51C1764.64 1042.14 1760.8 1040.95 1756.19 1040.95C1751.76 1040.95 1748.03 1042.08 1745.02 1044.32C1742 1046.54 1739.72 1049.65 1738.18 1053.65C1736.64 1057.62 1735.88 1062.25 1735.88 1067.55ZM1825.25 1104.66C1820.76 1104.66 1816.68 1103.82 1813.02 1102.12C1809.35 1100.4 1806.45 1097.92 1804.29 1094.69C1802.14 1091.43 1801.06 1087.49 1801.06 1082.87C1801.06 1078.81 1801.86 1075.52 1803.46 1072.99C1805.06 1070.44 1807.2 1068.44 1809.88 1066.99C1812.55 1065.54 1815.51 1064.47 1818.74 1063.76C1822 1063.02 1825.28 1062.44 1828.57 1062.01C1832.88 1061.45 1836.38 1061.04 1839.05 1060.76C1841.76 1060.45 1843.73 1059.94 1844.96 1059.24C1846.22 1058.53 1846.86 1057.3 1846.86 1055.54V1055.17C1846.86 1050.62 1845.61 1047.08 1843.12 1044.56C1840.65 1042.03 1836.91 1040.77 1831.9 1040.77C1826.7 1040.77 1822.62 1041.91 1819.66 1044.19C1816.71 1046.46 1814.63 1048.89 1813.43 1051.48L1803.09 1047.79C1804.94 1043.48 1807.4 1040.12 1810.48 1037.72C1813.59 1035.29 1816.97 1033.6 1820.63 1032.64C1824.33 1031.66 1827.96 1031.17 1831.53 1031.17C1833.81 1031.17 1836.42 1031.44 1839.38 1032C1842.36 1032.52 1845.24 1033.61 1848.01 1035.28C1850.81 1036.94 1853.13 1039.45 1854.98 1042.8C1856.83 1046.16 1857.75 1050.65 1857.75 1056.28V1103H1846.86V1093.4H1846.3C1845.56 1094.94 1844.33 1096.58 1842.61 1098.34C1840.88 1100.09 1838.59 1101.58 1835.73 1102.82C1832.87 1104.05 1829.37 1104.66 1825.25 1104.66ZM1826.91 1094.88C1831.22 1094.88 1834.85 1094.03 1837.81 1092.34C1840.79 1090.64 1843.04 1088.46 1844.55 1085.78C1846.09 1083.1 1846.86 1080.29 1846.86 1077.33V1067.36C1846.39 1067.91 1845.38 1068.42 1843.81 1068.88C1842.27 1069.32 1840.48 1069.7 1838.45 1070.04C1836.45 1070.35 1834.5 1070.62 1832.59 1070.87C1830.71 1071.08 1829.19 1071.27 1828.02 1071.42C1825.19 1071.79 1822.54 1072.39 1820.08 1073.22C1817.65 1074.02 1815.68 1075.24 1814.17 1076.87C1812.69 1078.47 1811.95 1080.66 1811.95 1083.43C1811.95 1087.21 1813.36 1090.07 1816.16 1092.01C1818.99 1093.92 1822.57 1094.88 1826.91 1094.88ZM1877.64 1103V1032.09H1888.16V1042.8H1888.9C1890.19 1039.29 1892.53 1036.45 1895.92 1034.26C1899.3 1032.08 1903.12 1030.98 1907.37 1030.98C1908.17 1030.98 1909.17 1031 1910.37 1031.03C1911.57 1031.06 1912.47 1031.11 1913.09 1031.17V1042.25C1912.72 1042.15 1911.87 1042.02 1910.55 1041.83C1909.26 1041.62 1907.89 1041.51 1906.44 1041.51C1903 1041.51 1899.92 1042.23 1897.21 1043.68C1894.53 1045.09 1892.41 1047.06 1890.84 1049.59C1889.3 1052.08 1888.53 1054.93 1888.53 1058.13V1103H1877.64ZM1961.29 1032.09V1041.32H1924.54V1032.09H1961.29ZM1935.25 1015.1H1946.14V1082.69C1946.14 1085.77 1946.59 1088.07 1947.48 1089.61C1948.41 1091.12 1949.58 1092.14 1950.99 1092.66C1952.44 1093.15 1953.96 1093.4 1955.56 1093.4C1956.76 1093.4 1957.75 1093.34 1958.52 1093.21C1959.29 1093.06 1959.9 1092.94 1960.36 1092.84L1962.58 1102.63C1961.84 1102.91 1960.81 1103.18 1959.49 1103.46C1958.16 1103.77 1956.49 1103.92 1954.45 1103.92C1951.38 1103.92 1948.36 1103.26 1945.41 1101.94C1942.48 1100.61 1940.05 1098.6 1938.11 1095.89C1936.2 1093.18 1935.25 1089.77 1935.25 1085.64V1015.1ZM1988.57 1060.34V1103H1977.67V1032.09H1988.2V1043.17H1989.12C1990.79 1039.57 1993.31 1036.68 1996.69 1034.49C2000.08 1032.28 2004.45 1031.17 2009.81 1031.17C2014.61 1031.17 2018.81 1032.15 2022.41 1034.12C2026.01 1036.06 2028.81 1039.02 2030.81 1042.99C2032.81 1046.93 2033.81 1051.91 2033.81 1057.94V1103H2022.92V1058.68C2022.92 1053.11 2021.47 1048.77 2018.58 1045.66C2015.68 1042.52 2011.71 1040.95 2006.67 1040.95C2003.19 1040.95 2000.08 1041.71 1997.34 1043.22C1994.63 1044.72 1992.49 1046.93 1990.92 1049.82C1989.35 1052.71 1988.57 1056.22 1988.57 1060.34ZM2083.45 1104.48C2076.62 1104.48 2070.72 1102.97 2065.77 1099.95C2060.84 1096.91 2057.04 1092.66 2054.37 1087.21C2051.72 1081.73 2050.4 1075.36 2050.4 1068.1C2050.4 1060.84 2051.72 1054.43 2054.37 1048.89C2057.04 1043.32 2060.77 1038.98 2065.54 1035.88C2070.34 1032.74 2075.94 1031.17 2082.34 1031.17C2086.03 1031.17 2089.68 1031.78 2093.28 1033.01C2096.88 1034.25 2100.16 1036.25 2103.12 1039.02C2106.07 1041.75 2108.42 1045.39 2110.18 1049.91C2111.93 1054.43 2112.81 1060.01 2112.81 1066.62V1071.24H2058.15V1061.82H2101.73C2101.73 1057.82 2100.93 1054.25 2099.33 1051.11C2097.76 1047.97 2095.51 1045.49 2092.59 1043.68C2089.7 1041.86 2086.28 1040.95 2082.34 1040.95C2078 1040.95 2074.25 1042.03 2071.08 1044.19C2067.94 1046.31 2065.52 1049.08 2063.83 1052.5C2062.14 1055.91 2061.29 1059.57 2061.29 1063.48V1069.76C2061.29 1075.12 2062.21 1079.66 2064.06 1083.38C2065.94 1087.07 2068.54 1089.89 2071.86 1091.83C2075.19 1093.74 2079.05 1094.69 2083.45 1094.69C2086.31 1094.69 2088.9 1094.29 2091.21 1093.49C2093.54 1092.66 2095.56 1091.43 2097.25 1089.8C2098.95 1088.13 2100.25 1086.07 2101.18 1083.61L2111.7 1086.57C2110.59 1090.14 2108.73 1093.27 2106.12 1095.98C2103.5 1098.66 2100.27 1100.75 2096.42 1102.26C2092.57 1103.74 2088.25 1104.48 2083.45 1104.48ZM2129.38 1103V1032.09H2139.91V1042.8H2140.65C2141.94 1039.29 2144.28 1036.45 2147.66 1034.26C2151.05 1032.08 2154.87 1030.98 2159.11 1030.98C2159.91 1030.98 2160.91 1031 2162.11 1031.03C2163.31 1031.06 2164.22 1031.11 2164.84 1031.17V1042.25C2164.47 1042.15 2163.62 1042.02 2162.3 1041.83C2161.01 1041.62 2159.64 1041.51 2158.19 1041.51C2154.74 1041.51 2151.67 1042.23 2148.96 1043.68C2146.28 1045.09 2144.16 1047.06 2142.59 1049.59C2141.05 1052.08 2140.28 1054.93 2140.28 1058.13V1103H2129.38ZM2192.16 1008.45L2191.23 1076.41H2180.52L2179.6 1008.45H2192.16ZM2185.88 1103.74C2183.6 1103.74 2181.65 1102.92 2180.01 1101.29C2178.38 1099.66 2177.57 1097.71 2177.57 1095.43C2177.57 1093.15 2178.38 1091.2 2180.01 1089.57C2181.65 1087.93 2183.6 1087.12 2185.88 1087.12C2188.16 1087.12 2190.11 1087.93 2191.74 1089.57C2193.37 1091.2 2194.19 1093.15 2194.19 1095.43C2194.19 1096.94 2193.8 1098.32 2193.03 1099.58C2192.29 1100.85 2191.29 1101.86 2190.03 1102.63C2188.8 1103.37 2187.42 1103.74 2185.88 1103.74Z" fill="black"/>
<defs>
<filter id="filter0_d_910_8201" x="1263.52" y="311.518" width="107.023" height="164.943" filterUnits="userSpaceOnUse" color-interpolation-filters="sRGB">
<feFlood flood-opacity="0" result="BackgroundImageFix"/>
<feColorMatrix in="SourceAlpha" type="matrix" values="0 0 0 0 0 0 0 0 0 0 0 0 0 0 0 0 0 0 127 0" result="hardAlpha"/>
<feOffset dy="4"/>
<feGaussianBlur stdDeviation="2"/>
<feComposite in2="hardAlpha" operator="out"/>
<feColorMatrix type="matrix" values="0 0 0 0 0 0 0 0 0 0 0 0 0 0 0 0 0 0 0.03 0"/>
<feBlend mode="normal" in2="BackgroundImageFix" result="effect1_dropShadow_910_8201"/>
<feBlend mode="normal" in="SourceGraphic" in2="effect1_dropShadow_910_8201" result="shape"/>
</filter>
<filter id="filter1_d_910_8201" x="933.719" y="312.057" width="107.328" height="165.689" filterUnits="userSpaceOnUse" color-interpolation-filters="sRGB">
<feFlood flood-opacity="0" result="BackgroundImageFix"/>
<feColorMatrix in="SourceAlpha" type="matrix" values="0 0 0 0 0 0 0 0 0 0 0 0 0 0 0 0 0 0 127 0" result="hardAlpha"/>
<feOffset dy="4"/>
<feGaussianBlur stdDeviation="2"/>
<feComposite in2="hardAlpha" operator="out"/>
<feColorMatrix type="matrix" values="0 0 0 0 0 0 0 0 0 0 0 0 0 0 0 0 0 0 0.03 0"/>
<feBlend mode="normal" in2="BackgroundImageFix" result="effect1_dropShadow_910_8201"/>
<feBlend mode="normal" in="SourceGraphic" in2="effect1_dropShadow_910_8201" result="shape"/>
</filter>
<filter id="filter2_d_910_8201" x="999.023" y="247" width="306" height="342" filterUnits="userSpaceOnUse" color-interpolation-filters="sRGB">
<feFlood flood-opacity="0" result="BackgroundImageFix"/>
<feColorMatrix in="SourceAlpha" type="matrix" values="0 0 0 0 0 0 0 0 0 0 0 0 0 0 0 0 0 0 127 0" result="hardAlpha"/>
<feOffset dy="4"/>
<feGaussianBlur stdDeviation="2"/>
<feComposite in2="hardAlpha" operator="out"/>
<feColorMatrix type="matrix" values="0 0 0 0 0 0 0 0 0 0 0 0 0 0 0 0 0 0 0.01 0"/>
<feBlend mode="normal" in2="BackgroundImageFix" result="effect1_dropShadow_910_8201"/>
<feBlend mode="normal" in="SourceGraphic" in2="effect1_dropShadow_910_8201" result="shape"/>
</filter>
<filter id="filter3_d_910_8201" x="999.023" y="564" width="313" height="138" filterUnits="userSpaceOnUse" color-interpolation-filters="sRGB">
<feFlood flood-opacity="0" result="BackgroundImageFix"/>
<feColorMatrix in="SourceAlpha" type="matrix" values="0 0 0 0 0 0 0 0 0 0 0 0 0 0 0 0 0 0 127 0" result="hardAlpha"/>
<feOffset dy="4"/>
<feGaussianBlur stdDeviation="2"/>
<feComposite in2="hardAlpha" operator="out"/>
<feColorMatrix type="matrix" values="0 0 0 0 0 0 0 0 0 0 0 0 0 0 0 0 0 0 0.02 0"/>
<feBlend mode="normal" in2="BackgroundImageFix" result="effect1_dropShadow_910_8201"/>
<feBlend mode="normal" in="SourceGraphic" in2="effect1_dropShadow_910_8201" result="shape"/>
</filter>
<linearGradient id="paint0_linear_910_8201" x1="1257.34" y1="401.06" x2="1357.51" y2="414.604" gradientUnits="userSpaceOnUse">
<stop stop-color="#FED002"/>
<stop offset="1" stop-color="#F69D14"/>
</linearGradient>
<linearGradient id="paint1_linear_910_8201" x1="1047.2" y1="401.603" x2="947.034" y2="415.147" gradientUnits="userSpaceOnUse">
<stop stop-color="#F69B15"/>
<stop offset="1" stop-color="#FDC706"/>
</linearGradient>
<linearGradient id="paint2_linear_910_8201" x1="1295.52" y1="386" x2="1006.52" y2="386" gradientUnits="userSpaceOnUse">
<stop stop-color="#F59A14"/>
<stop offset="1" stop-color="#FED001"/>
</linearGradient>
<linearGradient id="paint3_linear_910_8201" x1="1245.52" y1="618" x2="1009.52" y2="661.5" gradientUnits="userSpaceOnUse">
<stop stop-color="#F59815"/>
<stop offset="1" stop-color="#FDCD02"/>
</linearGradient>
<linearGradient id="paint4_linear_910_8201" x1="1221.52" y1="408" x2="1037.02" y2="413.5" gradientUnits="userSpaceOnUse">
<stop stop-color="#EC7D00"/>
<stop offset="1" stop-color="#F95926"/>
</linearGradient>
<linearGradient id="paint5_linear_910_8201" x1="1383.5" y1="752.379" x2="914.5" y2="752.379" gradientUnits="userSpaceOnUse">
<stop stop-color="#3F1E0F"/>
<stop offset="1" stop-color="#563728" stop-opacity="0.54"/>
</linearGradient>
<linearGradient id="paint6_linear_910_8201" x1="1383.5" y1="752.379" x2="914.5" y2="752.379" gradientUnits="userSpaceOnUse">
<stop stop-color="#3F1E0F"/>
<stop offset="1" stop-color="#563728" stop-opacity="0.54"/>
</linearGradient>
<linearGradient id="paint7_linear_910_8201" x1="1383.5" y1="752.379" x2="914.5" y2="752.379" gradientUnits="userSpaceOnUse">
<stop stop-color="#3F1E0F"/>
<stop offset="1" stop-color="#563728" stop-opacity="0.54"/>
</linearGradient>
<linearGradient id="paint8_linear_910_8201" x1="1267.56" y1="753.063" x2="1041.02" y2="753.063" gradientUnits="userSpaceOnUse">
<stop stop-color="#F69F13"/>
<stop offset="1" stop-color="#FECE02"/>
</linearGradient>
</defs>
</svg>
